SplineFontDB: 3.0
FontName: aghtex_mathcal
FullName: aghtex_mathcal
FamilyName: aghtex_mathcal
Weight: Book
Copyright: Copyright (C) 2012 KM, 1997, 2009 American Mathematical Society (<http://www.ams.org>), with Reserved Font Name CMSY5.
Version: 3.2.0.1
ItalicAngle: -14.04
UnderlinePosition: -100
UnderlineWidth: 50
Ascent: 819
Descent: 205
LayerCount: 2
Layer: 0 1 "+gMyXYgAA"  1
Layer: 1 1 "+Uk2XYgAA"  0
NeedsXUIDChange: 1
UniqueID: 5096646
FSType: 8
OS2Version: 1
OS2_WeightWidthSlopeOnly: 0
OS2_UseTypoMetrics: 0
CreationTime: 1344259763
ModificationTime: 1355654660
PfmFamily: 17
TTFWeight: 400
TTFWidth: 5
LineGap: 92
VLineGap: 0
OS2TypoAscent: 0
OS2TypoAOffset: 1
OS2TypoDescent: 0
OS2TypoDOffset: 1
OS2TypoLinegap: 92
OS2WinAscent: 0
OS2WinAOffset: 1
OS2WinDescent: 0
OS2WinDOffset: 1
HheadAscent: 0
HheadAOffset: 1
HheadDescent: 0
HheadDOffset: 1
OS2Vendor: 'PfEd'
MarkAttachClasses: 1
DEI: 91125
TtTable: prep
PUSHW_1
 511
SCANCTRL
PUSHB_1
 1
SCANTYPE
SVTCA[y-axis]
MPPEM
PUSHB_1
 8
LT
IF
PUSHB_2
 1
 1
INSTCTRL
EIF
PUSHB_2
 70
 6
CALL
IF
POP
PUSHB_1
 16
EIF
MPPEM
PUSHB_1
 20
GT
IF
POP
PUSHB_1
 128
EIF
SCVTCI
PUSHB_1
 6
CALL
NOT
IF
SVTCA[y-axis]
PUSHB_1
 3
DUP
RCVT
PUSHB_1
 3
CALL
WCVTP
PUSHB_1
 4
DUP
RCVT
PUSHB_3
 3
 27
 2
CALL
PUSHB_1
 3
CALL
WCVTP
SVTCA[x-axis]
PUSHB_1
 5
DUP
RCVT
PUSHB_1
 3
CALL
WCVTP
PUSHB_1
 6
DUP
RCVT
PUSHB_3
 5
 27
 2
CALL
PUSHB_2
 3
 70
SROUND
CALL
WCVTP
EIF
PUSHB_1
 20
CALL
EndTTInstrs
TtTable: fpgm
PUSHB_1
 0
FDEF
PUSHB_1
 0
SZP0
MPPEM
PUSHB_1
 42
LT
IF
PUSHB_1
 74
SROUND
EIF
PUSHB_1
 0
SWAP
MIAP[rnd]
RTG
PUSHB_1
 6
CALL
IF
RTDG
EIF
MPPEM
PUSHB_1
 42
LT
IF
RDTG
EIF
DUP
MDRP[rp0,rnd,grey]
PUSHB_1
 1
SZP0
MDAP[no-rnd]
RTG
ENDF
PUSHB_1
 1
FDEF
DUP
MDRP[rp0,min,white]
PUSHB_1
 12
CALL
ENDF
PUSHB_1
 2
FDEF
MPPEM
GT
IF
RCVT
SWAP
EIF
POP
ENDF
PUSHB_1
 3
FDEF
ROUND[Black]
RTG
DUP
PUSHB_1
 64
LT
IF
POP
PUSHB_1
 64
EIF
ENDF
PUSHB_1
 4
FDEF
PUSHB_1
 6
CALL
IF
POP
SWAP
POP
ROFF
IF
MDRP[rp0,min,rnd,black]
ELSE
MDRP[min,rnd,black]
EIF
ELSE
MPPEM
GT
IF
IF

StartChar: A
Encoding: 65 65 0
Width: 1113
VWidth: 1000
Flags: W
HStem: -62 118<180.015 275.57> -38 98<908 1036> -38 79<898.5 993.148> 153 79<515.345 777>
LayerCount: 2
Fore
SplineSet
475 153 m 2,0,1
 465 153 465 153 456 154 c 1,2,3
 373 45 373 45 316 -8 c 0,4,5
 258 -62 258 -62 210 -62 c 0,6,7
 161 -62 161 -62 123 -29 c 128,-1,8
 85 4 85 4 85 33 c 128,-1,9
 85 62 85 62 101 90 c 0,10,11
 109 104 109 104 113 110 c 0,12,13
 120 118 120 118 125 120 c 0,14,15
 129 122 129 122 136 125 c 2,16,-1
 139 126 l 1,17,-1
 149 117 l 1,18,-1
 149 115 l 2,19,20
 149 114 149 114 149 113 c 0,21,22
 150 112 150 112 152 111 c 2,23,-1
 153 109 l 1,24,-1
 153 108 l 2,25,26
 153 107 153 107 156 103 c 128,-1,27
 159 99 159 99 160 97 c 0,28,29
 195 56 195 56 244 56 c 0,30,31
 278 56 278 56 328 107 c 0,32,33
 380 159 380 159 467 274 c 0,34,35
 622 479 622 479 715 662 c 2,36,-1
 715 663 l 1,37,-1
 736 685 l 1,38,39
 751 705 751 705 777 719 c 0,40,41
 803 734 803 734 823 734 c 0,42,43
 829 734 829 734 833 733 c 0,44,45
 839 731 839 731 841 725 c 0,46,47
 843 718 843 718 844 693 c 0,48,49
 849 562 849 562 877 348 c 0,50,51
 905 133 905 133 948 57 c 0,52,53
 957 41 957 41 979 41 c 0,54,55
 984 41 984 41 994 47 c 0,56,57
 1016 60 1016 60 1036 60 c 0,58,59
 1043 60 1043 60 1048 58 c 0,60,61
 1057 54 1057 54 1057 44 c 0,62,63
 1057 19 1057 19 1004 -10 c 0,64,65
 953 -38 953 -38 908 -38 c 0,66,67
 889 -38 889 -38 875 -33 c 0,68,69
 860 -28 860 -28 851 -15 c 0,70,71
 842 -4 842 -4 838 4 c 128,-1,72
 834 12 834 12 828 26 c 0,73,74
 808 78 808 78 791 153 c 1,75,-1
 475 153 l 2,0,1
544 232 m 2,76,-1
 777 232 l 1,77,78
 748 412 748 412 737 581 c 1,79,80
 639 399 639 399 515 230 c 1,81,82
 526 232 526 232 544 232 c 2,76,-1
EndSplineSet
Validated: 19457
EndChar

StartChar: B
Encoding: 66 66 1
Width: 919
VWidth: 1000
Flags: W
HStem: -27 79<363.22 582.688> 635 75<582.797 714.033>
VStem: 722 111<151.5 269.514> 745 111<536.172 606.677>
LayerCount: 2
Fore
SplineSet
702 403 m 0,0,1
 734 392 734 392 764 373 c 0,2,3
 795 353 795 353 814 319 c 128,-1,4
 833 285 833 285 833 243 c 0,5,6
 833 125 833 125 709 49 c 0,7,8
 586 -27 586 -27 408 -27 c 0,9,10
 342 -27 342 -27 290 -10 c 1,11,12
 216 19 216 19 206 38 c 1,13,-1
 206 37 l 2,14,15
 193 18 193 18 186 9 c 0,16,-1
 186 8 l 2,17,18
 175 -3 175 -3 152 -14 c 0,19,20
 129 -27 129 -27 111 -27 c 0,21,22
 102 -27 102 -27 97 -23 c 0,23,24
 93 -20 93 -20 91 -15 c 0,25,26
 90 -12 90 -12 90 -10 c 0,27,28
 90 -9 90 -9 90 -8 c 2,29,-1
 90 -7 l 2,30,31
 92 -1 92 -1 98 9 c 0,32,33
 138 79 138 79 155 130 c 0,34,35
 171 176 171 176 195 283 c 0,36,37
 233 456 233 456 249 610 c 1,38,39
 205 588 205 588 190 588 c 0,40,41
 181 588 181 588 176 592 c 0,42,43
 172 595 172 595 170 600 c 0,44,45
 169 602 169 602 169 605 c 0,46,47
 169 629 169 629 221 656 c 1,48,-1
 294 693 l 1,49,50
 329 710 329 710 343 710 c 0,51,52
 353 710 353 710 359 706 c 0,53,54
 363 703 363 703 364 698 c 0,55,56
 365 696 365 696 365 693 c 0,57,58
 365 656 365 656 343 520 c 1,59,60
 392 575 392 575 446 615 c 0,61,62
 506 659 506 659 558 679 c 128,-1,63
 610 699 610 699 645.5 706.5 c 128,-1,64
 681 714 681 714 710 714 c 0,65,66
 775 714 775 714 815 683 c 0,67,68
 856 651 856 651 856 602 c 0,69,70
 856 550 856 550 806 505 c 0,71,72
 761 464 761 464 655 415 c 1,73,74
 679 411 679 411 702 403 c 0,0,1
228 81 m 1,75,76
 232 84 232 84 237 87 c 0,77,78
 269 108 269 108 294 108 c 0,79,80
 303 108 303 108 315 100 c 0,81,82
 386 52 386 52 480 52 c 0,83,84
 579 52 579 52 646 79 c 0,85,86
 722 109 722 109 722 197 c 0,87,88
 722 268 722 268 659 305 c 0,89,90
 595 343 595 343 505 343 c 0,91,92
 476 343 476 343 440 338 c 0,93,94
 437 338 437 338 434 337.5 c 128,-1,95
 431 337 431 337 429 336.5 c 128,-1,96
 427 336 427 336 426 336 c 0,97,98
 417 336 417 336 412 340 c 0,99,100
 408 343 408 343 406 348 c 0,101,102
 405 350 405 350 405 353 c 0,103,104
 405 371 405 371 437 394 c 0,105,106
 453 405 453 405 493 419 c 0,107,108
 590 452 590 452 640 471 c 0,109,110
 693 492 693 492 716 508 c 0,111,112
 737 524 737 524 741 532 c 128,-1,113
 745 540 745 540 745 556 c 0,114,115
 745 592 745 592 715 613 c 0,116,117
 684 635 684 635 638 635 c 0,118,119
 529 635 529 635 430 520 c 0,120,121
 330 405 330 405 285 235 c 0,122,123
 268 171 268 171 243 114 c 2,124,-1
 228 81 l 1,75,76
EndSplineSet
Validated: 19457
EndChar

StartChar: C
Encoding: 67 67 2
Width: 782
VWidth: 1000
Flags: W
HStem: -29 79<305.729 464.148> 631 79<445.007 651>
VStem: 75 111<171.501 361.759> 596 111<554.066 669>
LayerCount: 2
Fore
SplineSet
652.5 104.5 m 128,-1,1
 609 67 609 67 573 45 c 0,2,3
 453 -29 453 -29 335 -29 c 0,4,5
 221 -29 221 -29 148 43.5 c 128,-1,6
 75 116 75 116 75 234 c 0,7,8
 75 314 75 314 114.5 407 c 128,-1,9
 154 500 154 500 235 572 c 0,10,11
 309 638 309 638 403.5 674 c 128,-1,12
 498 710 498 710 595 710 c 0,13,14
 707 710 707 710 707 628 c 0,15,16
 707 597 707 597 683 551 c 0,17,18
 659 504 659 504 639 479 c 0,19,20
 629 467 629 467 605.5 453 c 128,-1,21
 582 439 582 439 561 439 c 0,22,23
 552 439 552 439 547 442 c 0,24,25
 539 446 539 446 539 455 c 128,-1,26
 539 464 539 464 552 482 c 0,27,28
 557 489 557 489 565.5 502.5 c 128,-1,29
 574 516 574 516 585 541 c 128,-1,30
 596 566 596 566 596 581 c 0,31,32
 596 609 596 609 578 620 c 128,-1,33
 560 631 560 631 522 631 c 0,34,35
 443 631 443 631 381 602.5 c 128,-1,36
 319 574 319 574 283.5 533 c 128,-1,37
 248 492 248 492 225 441 c 128,-1,38
 202 390 202 390 194 351 c 128,-1,39
 186 312 186 312 186 281 c 0,40,41
 186 177 186 177 248 113.5 c 128,-1,42
 310 50 310 50 408 50 c 0,43,44
 510 50 510 50 590 130 c 1,45,46
 634 176 634 176 672 176 c 0,47,48
 673 176 673 176 674 176 c 0,49,50
 683 176 683 176 688 173 c 0,51,52
 696 169 696 169 696 160 c 0,53,0
 696 142 696 142 652.5 104.5 c 128,-1,1
EndSplineSet
Validated: 3073
EndChar

StartChar: D
Encoding: 68 68 3
Width: 1083
VWidth: 1000
Flags: W
HStem: -5 79<357 558.413> 609 79<284.594 389 496.414 737.754>
VStem: 389 109<442.69 609> 916 111<326.62 485.108>
LayerCount: 2
Fore
SplineSet
219 -5 m 2,0,1
 200 -5 200 -5 193 0 c 0,2,3
 186 4 186 4 186 15 c 128,-1,4
 186 26 186 26 208.5 45 c 128,-1,5
 231 64 231 64 261 72 c 1,6,7
 372 324 372 324 389 609 c 1,8,9
 339 607 339 607 302 601.5 c 128,-1,10
 265 596 265 596 245.5 590.5 c 128,-1,11
 226 585 226 585 213 573 c 128,-1,12
 200 561 200 561 196 552.5 c 128,-1,13
 192 544 192 544 187 529 c 0,14,15
 179 505 179 505 148.5 487.5 c 128,-1,16
 118 470 118 470 98 470 c 0,17,18
 87 470 87 470 82 475 c 0,19,20
 81 476 81 476 80 478 c 0,21,22
 77 482 77 482 77 488 c 128,-1,23
 77 494 77 494 81 506.5 c 128,-1,24
 85 519 85 519 100 543 c 128,-1,25
 115 567 115 567 138 587 c 0,26,27
 178 623 178 623 226 645 c 128,-1,28
 274 667 274 667 334.5 675.5 c 128,-1,29
 395 684 395 684 433.5 686 c 128,-1,30
 472 688 472 688 543 688 c 0,31,32
 615 688 615 688 652.5 687 c 128,-1,33
 690 686 690 686 744.5 679.5 c 128,-1,34
 799 673 799 673 845 659 c 0,35,36
 1027 604 1027 604 1027 446 c 0,37,38
 1027 343 1027 343 966.5 256 c 128,-1,39
 906 169 906 169 809.5 113 c 128,-1,40
 713 57 713 57 595.5 26 c 128,-1,41
 478 -5 478 -5 359 -5 c 2,42,-1
 219 -5 l 2,0,1
540 609 m 2,43,-1
 498 609 l 1,44,45
 486 460 486 460 452 335.5 c 128,-1,46
 418 211 418 211 357 74 c 1,47,-1
 423 74 l 2,48,49
 499 74 499 74 597.5 92 c 128,-1,50
 696 110 696 110 774 156 c 0,51,52
 818 182 818 182 848.5 216.5 c 128,-1,53
 879 251 879 251 892 285.5 c 128,-1,54
 905 320 905 320 910.5 347.5 c 128,-1,55
 916 375 916 375 916 400 c 0,56,57
 916 450 916 450 893 487.5 c 128,-1,58
 870 525 870 525 834 547.5 c 128,-1,59
 798 570 798 570 746.5 584.5 c 128,-1,60
 695 599 695 599 645.5 604 c 128,-1,61
 596 609 596 609 540 609 c 2,43,-1
EndSplineSet
Validated: 19457
EndChar

StartChar: E
Encoding: 69 69 4
Width: 770
VWidth: 1000
Flags: W
HStem: -27 79<259.474 451.436> 336 79<386.848 525.992> 631 79<425.417 611.336>
VStem: 88 111<98.7971 187.693> 208 111<464.681 549.354> 621 111<571.928 652>
LayerCount: 2
Fore
SplineSet
208 470 m 0,0,1
 208 564 208 564 318 637 c 128,-1,2
 428 710 428 710 579 710 c 0,3,4
 656 710 656 710 694 691.5 c 128,-1,5
 732 673 732 673 732 631 c 0,6,7
 732 588 732 588 696 558.5 c 128,-1,8
 660 529 660 529 629 529 c 0,9,10
 622 529 622 529 617 531 c 0,11,12
 608 535 608 535 608 545 c 0,13,14
 608 550 608 550 614 561 c 0,15,16
 621 576 621 576 621 585 c 0,17,18
 621 615 621 615 582 623 c 0,19,20
 545 631 545 631 507 631 c 0,21,22
 430 631 430 631 379 608 c 0,23,24
 319 582 319 582 319 517 c 0,25,26
 319 422 319 422 522 415 c 0,27,28
 525 415 525 415 529.5 415 c 128,-1,29
 534 415 534 415 536.5 415 c 128,-1,30
 539 415 539 415 543 414.5 c 128,-1,31
 547 414 547 414 551.5 410.5 c 128,-1,32
 556 407 556 407 557 402 c 0,33,34
 557 400 557 400 557 398 c 0,35,36
 557 383 557 383 525 357 c 1,37,38
 496 337 496 337 454 336 c 0,39,40
 391 335 391 335 338.5 315.5 c 128,-1,41
 286 296 286 296 257 267.5 c 128,-1,42
 228 239 228 239 213.5 209.5 c 128,-1,43
 199 180 199 180 199 153 c 0,44,45
 199 120 199 120 222 98 c 128,-1,46
 245 76 245 76 282 67 c 128,-1,47
 319 58 319 58 343 55 c 128,-1,48
 367 52 367 52 388 52 c 0,49,50
 426 52 426 52 460 61 c 128,-1,51
 494 70 494 70 521.5 87.5 c 128,-1,52
 549 105 549 105 563 116.5 c 128,-1,53
 577 128 577 128 594 144 c 0,54,55
 606 156 606 156 626.5 166 c 128,-1,56
 647 176 647 176 663 176 c 0,57,58
 672 176 672 176 677 173 c 0,59,60
 685 169 685 169 685 160 c 0,61,62
 685 141 685 141 639.5 103.5 c 128,-1,63
 594 66 594 66 549 40 c 0,64,65
 434 -27 434 -27 316 -27 c 0,66,67
 255 -27 255 -27 206 -14.5 c 128,-1,68
 157 -2 157 -2 122.5 29 c 128,-1,69
 88 60 88 60 88 106 c 0,70,71
 88 139 88 139 108.5 183.5 c 128,-1,72
 129 228 129 228 167 267 c 0,73,74
 215 315 215 315 300 360 c 1,75,76
 208 393 208 393 208 470 c 0,0,1
EndSplineSet
Validated: 19457
EndChar

StartChar: F
Encoding: 70 70 5
Width: 988
VWidth: 1000
Flags: W
HStem: -43 80<216.309 310.473> 280 91<780.094 851.539> 291 80<564 779.782> 609 79<341.485 533 631.383 946>
VStem: 533 103<520.504 609>
LayerCount: 2
Fore
SplineSet
1025 597 m 128,-1,1
 992 576 992 576 966 576 c 0,2,3
 955 576 955 576 949 583 c 2,4,-1
 948 584 l 1,5,-1
 946 592 l 1,6,-1
 946 593 l 1,7,-1
 946 598 l 2,8,9
 946 599 946 599 944 600 c 0,10,11
 930 609 930 609 862 609 c 2,12,-1
 636 609 l 1,13,14
 607 475 607 475 564 371 c 1,15,-1
 867 371 l 2,16,17
 871 371 871 371 873 370 c 0,18,19
 882 368 882 368 883 360 c 0,20,21
 884 357 884 357 884 354 c 0,22,23
 884 323 884 323 850.5 301.5 c 128,-1,24
 817 280 817 280 788 280 c 0,25,26
 783 280 783 280 780 281 c 0,27,28
 773 284 773 284 771 291 c 1,29,-1
 532 291 l 1,30,31
 443 92 443 92 402 48 c 0,32,33
 362 4 362 4 313.5 -19.5 c 128,-1,34
 265 -43 265 -43 221 -43 c 0,35,36
 176 -43 176 -43 138.5 -24 c 128,-1,37
 101 -5 101 -5 84 14.5 c 128,-1,38
 67 34 67 34 67 46 c 0,39,40
 67 64 67 64 99 86 c 128,-1,41
 131 108 131 108 163 108 c 0,42,43
 165 108 165 108 167 107 c 0,44,45
 172 104 172 104 183.5 88 c 128,-1,46
 195 72 195 72 223.5 54.5 c 128,-1,47
 252 37 252 37 296 37 c 0,48,49
 298 37 298 37 299.5 37.5 c 128,-1,50
 301 38 301 38 302.5 38 c 128,-1,51
 304 38 304 38 305 38 c 0,52,53
 318 45 318 45 365 137 c 128,-1,54
 412 229 412 229 452 332 c 0,55,56
 505 466 505 466 533 609 c 1,57,-1
 436 609 l 2,58,59
 356 609 356 609 341 606 c 1,60,61
 302 575 302 575 264 575 c 0,62,63
 259 575 259 575 254.5 579.5 c 128,-1,64
 250 584 250 584 250 589 c 0,65,66
 250 609 250 609 275 633 c 0,67,68
 333 688 333 688 462 688 c 2,69,-1
 949 688 l 2,70,71
 1058 688 1058 688 1058 644 c 0,72,0
 1058 618 1058 618 1025 597 c 128,-1,1
EndSplineSet
Validated: 19457
EndChar

StartChar: G
Encoding: 71 71 6
Width: 850
VWidth: 1000
Flags: W
HStem: -124 79<274.458 465.079> -95 86<167.506 259.611> 63 79<324.23 481.297> 631 79<450.172 661.653>
VStem: 105 111<247.288 412.482> 674 111<566.365 651>
LayerCount: 2
Fore
SplineSet
352 63 m 0,0,1
 243 63 243 63 174 128.5 c 128,-1,2
 105 194 105 194 105 296 c 0,3,4
 105 373 105 373 143 447.5 c 128,-1,5
 181 522 181 522 246 580 c 128,-1,6
 311 638 311 638 408 674 c 128,-1,7
 505 710 505 710 615 710 c 0,8,9
 703 710 703 710 744 691.5 c 128,-1,10
 785 673 785 673 785 629 c 0,11,12
 785 584 785 584 729 523 c 0,13,14
 672 461 672 461 630 461 c 0,15,16
 621 461 621 461 616 464 c 0,17,18
 608 468 608 468 608 477 c 0,19,20
 608 489 608 489 627 509 c 0,21,22
 674 556 674 556 674 583 c 0,23,24
 674 596 674 596 666 605 c 128,-1,25
 658 614 658 614 650.5 616.5 c 128,-1,26
 643 619 643 619 631 622 c 0,27,28
 595 631 595 631 543 631 c 0,29,30
 395 631 395 631 315 561 c 0,31,32
 264 517 264 517 240 455.5 c 128,-1,33
 216 394 216 394 216 342 c 0,34,35
 216 255 216 255 274.5 198.5 c 128,-1,36
 333 142 333 142 425 142 c 0,37,38
 503 142 503 142 563 187 c 0,39,40
 628 235 628 235 654 324 c 0,41,42
 660 343 660 343 690.5 362 c 128,-1,43
 721 381 721 381 742 381 c 0,44,45
 752 381 752 381 758 377 c 0,46,47
 762 374 762 374 763 369 c 0,48,49
 764 367 764 367 764 364 c 0,50,51
 764 355 764 355 748.5 298 c 128,-1,52
 733 241 733 241 692.5 148 c 128,-1,53
 652 55 652 55 603 -0 c 0,54,55
 493 -124 493 -124 350 -124 c 0,56,57
 255 -124 255 -124 167 -95 c 0,58,59
 144 -87 144 -87 139 -79 c 0,60,61
 136 -75 136 -75 136 -71 c 0,62,63
 136 -53 136 -53 167.5 -31 c 128,-1,64
 199 -9 199 -9 225 -9 c 0,65,66
 233 -9 233 -9 248 -14 c 0,67,68
 334 -45 334 -45 423 -45 c 0,69,70
 455 -45 455 -45 477 -33.5 c 128,-1,71
 499 -22 499 -22 529 18 c 1,72,73
 570 76 570 76 596 142 c 1,74,75
 474 63 474 63 352 63 c 0,0,1
EndSplineSet
Validated: 19457
EndChar

StartChar: H
Encoding: 72 72 7
Width: 1194
VWidth: 1000
Flags: W
HStem: -61 79<823 980.196> 268 79<283.006 366 489 799.529> 609 79<301.261 465>
VStem: 366 99<199.149 268> 423 111<439.517 623.5> 757 111<1.5 188.441>
LayerCount: 2
Fore
SplineSet
821 347 m 1,0,-1
 845 418 l 2,1,2
 868 489 868 489 875 506 c 2,3,4
 892 551 l 1,5,-1
 918 617 l 1,6,-1
 923 630 l 1,7,8
 935 656 935 656 964.5 672 c 128,-1,9
 994 688 994 688 1008 688 c 128,-1,10
 1022 688 1022 688 1028 684 c 0,11,12
 1032 681 1032 681 1033 676 c 0,13,14
 1034 673 1034 673 1034 671 c 0,15,16
 1034 670 1034 670 1034 669 c 0,17,18
 1033 665 1033 665 1024 642 c 0,19,20
 956 478 956 478 911 314 c 0,21,22
 868 157 868 157 868 65 c 0,23,24
 868 47 868 47 879 32.5 c 128,-1,25
 890 18 890 18 916 18 c 0,26,27
 950 18 950 18 984 26 c 1,28,29
 994 53 994 53 1024.5 69.5 c 128,-1,30
 1055 86 1055 86 1074 86 c 0,31,32
 1082 86 1082 86 1087 83 c 0,33,34
 1091 80 1091 80 1093 75 c 0,35,36
 1094 72 1094 72 1094 69 c 0,37,38
 1094 54 1094 54 1079.5 34.5 c 128,-1,39
 1065 15 1065 15 1037 -8 c 128,-1,40
 1009 -31 1009 -31 958 -46 c 128,-1,41
 907 -61 907 -61 843 -61 c 0,42,43
 803 -61 803 -61 780 -38.5 c 128,-1,44
 757 -16 757 -16 757 19 c 0,45,46
 757 112 757 112 800 273 c 1,47,48
 785 268 785 268 762 268 c 2,49,-1
 465 268 l 1,50,51
 426 138 426 138 371 11 c 0,52,53
 360 -14 360 -14 330.5 -30 c 128,-1,54
 301 -46 301 -46 282 -46 c 0,55,56
 272 -46 272 -46 266 -42 c 0,57,58
 262 -39 262 -39 261 -34 c 0,59,60
 260 -31 260 -31 260 -29 c 0,61,62
 260 -28 260 -28 260 -27 c 0,63,64
 260 -26 l 0,65,66
 261 -22 261 -22 269 -3 c 0,67,68
 334 148 334 148 366 268 c 1,69,-1
 286 268 l 2,70,71
 267 268 267 268 259 273 c 0,72,73
 252 277 252 277 252 284 c 0,74,75
 252 304 252 304 283 325 c 128,-1,76
 314 346 314 346 343 347 c 1,77,-1
 388 347 l 1,78,79
 402 399 402 399 413 466 c 0,80,81
 423 528 423 528 423 560 c 0,82,83
 423 609 423 609 367 609 c 0,84,85
 314 609 314 609 274.5 593 c 128,-1,86
 235 577 235 577 219 561.5 c 128,-1,87
 203 546 203 546 188 526 c 0,88,89
 167 498 167 498 148 487 c 0,90,91
 119 470 119 470 98 470 c 0,92,93
 89 470 89 470 84 474 c 0,94,95
 80 477 80 477 78 482 c 0,96,97
 77 485 77 485 77 487 c 0,98,99
 77 488 77 488 77 489 c 0,100,101
 78 497 78 497 92 517 c 128,-1,102
 106 537 106 537 137 566.5 c 128,-1,103
 168 596 168 596 209 623 c 128,-1,104
 250 650 250 650 311.5 669 c 128,-1,105
 373 688 373 688 440 688 c 0,106,107
 490 688 490 688 512 664 c 128,-1,108
 534 640 534 640 534 607 c 0,109,110
 534 514 534 514 489 347 c 1,111,-1
 821 347 l 1,0,-1
EndSplineSet
Validated: 19457
EndChar

StartChar: I
Encoding: 73 73 8
Width: 819
VWidth: 1000
Flags: W
HStem: -5 79<88.0984 299.852 367 658.154> 609 79<257.172 511 596.159 814.161>
LayerCount: 2
Fore
SplineSet
618 609 m 2,0,1
 601 609 601 609 596 606 c 1,2,3
 552 555 552 555 509 381 c 0,4,5
 484 278 484 278 451.5 201 c 128,-1,6
 419 124 419 124 367 74 c 1,7,-1
 596 74 l 2,8,9
 632 74 632 74 659 79 c 1,10,11
 667 104 667 104 697.5 123 c 128,-1,12
 728 142 728 142 750 142 c 0,13,14
 759 142 759 142 764 138 c 0,15,16
 768 135 768 135 770 130 c 0,17,18
 771 128 771 128 771 119.5 c 128,-1,19
 771 111 771 111 757 91 c 128,-1,20
 743 71 743 71 716.5 49 c 128,-1,21
 690 27 690 27 641 11 c 128,-1,22
 592 -5 592 -5 532 -5 c 2,23,-1
 91 -5 l 2,24,25
 72 -5 72 -5 64 -0 c 0,26,27
 57 4 57 4 57 11 c 0,28,29
 57 28 57 28 87 51 c 128,-1,30
 117 74 117 74 160 74 c 2,31,-1
 249 74 l 2,32,33
 270 74 270 74 276.5 76 c 128,-1,34
 283 78 283 78 293 88 c 0,35,36
 348 146 348 146 397 336 c 0,37,38
 427 452 427 452 449.5 508.5 c 128,-1,39
 472 565 472 565 511 609 c 1,40,-1
 402 609 l 2,41,42
 273 609 273 609 216 589 c 0,43,44
 208 586 208 586 205 582 c 128,-1,45
 202 578 202 578 196 563 c 0,46,47
 188 542 188 542 158.5 524.5 c 128,-1,48
 129 507 129 507 107 507 c 0,49,50
 98 507 98 507 93 511 c 0,51,52
 89 514 89 514 87 519 c 0,53,54
 86 521 86 521 86 524 c 0,55,56
 86 552 86 552 127 595 c 128,-1,57
 168 638 168 638 248 663 c 1,58,59
 319 688 319 688 466 688 c 2,60,-1
 812 688 l 2,61,62
 823 688 823 688 828.5 687.5 c 128,-1,63
 834 687 834 687 839 683.5 c 128,-1,64
 844 680 844 680 845 674 c 0,65,66
 845 673 845 673 845 671 c 0,67,68
 845 662 845 662 834 648.5 c 128,-1,69
 823 635 823 635 798 622 c 128,-1,70
 773 609 773 609 743 609 c 2,71,-1
 618 609 l 2,0,1
EndSplineSet
Validated: 19457
EndChar

StartChar: J
Encoding: 74 74 9
Width: 958
VWidth: 1000
Flags: W
HStem: -124 79<297.074 468.221> 609 79<625.262 849 913.719 1038.8>
VStem: 106 111<19.2681 104.845>
LayerCount: 2
Fore
SplineSet
1036 688 m 2,0,1
 1055 688 1055 688 1063 683 c 0,2,3
 1070 679 1070 679 1070 672 c 0,4,5
 1070 655 1070 655 1041.5 633 c 128,-1,6
 1013 611 1013 611 973 609 c 0,7,8
 951 608 951 608 938 603.5 c 128,-1,9
 925 599 925 599 903.5 577 c 128,-1,10
 882 555 882 555 857 512 c 0,11,12
 805 421 805 421 753 211 c 0,13,14
 735 141 735 141 721 106.5 c 128,-1,15
 707 72 707 72 673 33 c 0,16,17
 617 -31 617 -31 525.5 -77.5 c 128,-1,18
 434 -124 434 -124 337 -124 c 0,19,20
 242 -124 242 -124 174 -81 c 128,-1,21
 106 -38 106 -38 106 38 c 0,22,23
 106 60 106 60 110 74.5 c 128,-1,24
 114 89 114 89 119.5 96 c 128,-1,25
 125 103 125 103 135 110 c 0,26,27
 171 137 171 137 201 137 c 0,28,29
 210 137 210 137 215 133 c 0,30,31
 217 131 217 131 218 129 c 0,32,33
 221 125 221 125 221 119 c 0,34,35
 221 118 221 118 219 105.5 c 128,-1,36
 217 93 217 93 217 84 c 0,37,38
 217 22 217 22 275 -11.5 c 128,-1,39
 333 -45 333 -45 410 -45 c 0,40,41
 489 -45 489 -45 548 -2 c 0,42,43
 577 19 577 19 596 47.5 c 128,-1,44
 615 76 615 76 622 96 c 128,-1,45
 629 116 629 116 637 149 c 0,46,47
 687 348 687 348 732 446.5 c 128,-1,48
 777 545 777 545 849 609 c 1,49,-1
 707 609 l 2,50,51
 622 608 622 608 559 578 c 0,52,53
 529 563 529 563 508.5 542 c 128,-1,54
 488 521 488 521 482 507.5 c 128,-1,55
 476 494 476 494 469 471 c 0,56,57
 462 450 462 450 432 432 c 128,-1,58
 402 414 402 414 380 414 c 0,59,60
 373 414 373 414 368 416 c 0,61,62
 359 420 359 420 359 430 c 0,63,64
 359 435 359 435 362 447 c 128,-1,65
 365 459 365 459 379 485 c 128,-1,66
 393 511 393 511 415 537 c 0,67,68
 471 601 471 601 569.5 644.5 c 128,-1,69
 668 688 668 688 771 688 c 2,70,-1
 1036 688 l 2,0,1
EndSplineSet
Validated: 19457
EndChar

StartChar: K
Encoding: 75 75 10
Width: 1055
VWidth: 1000
Flags: W
HStem: -27 68<670.718 825.429> 588 122<850.148 914.793> 642 68<744.815 873.5>
VStem: 850 88<600.535 654.317>
LayerCount: 2
Fore
SplineSet
964 129 m 0,0,1
 964 112 964 112 948 87 c 128,-1,2
 932 62 932 62 901.5 36 c 128,-1,3
 871 10 871 10 814.5 -8.5 c 128,-1,4
 758 -27 758 -27 687 -27 c 0,5,6
 630 -27 630 -27 563 30 c 0,7,8
 478 102 478 102 400 224 c 0,9,10
 331 330 331 330 323 387 c 1,11,12
 302 307 302 307 272 218 c 0,13,14
 222 73 222 73 196 24 c 0,15,16
 187 7 187 7 159 -10 c 128,-1,17
 131 -27 131 -27 111 -27 c 0,18,19
 102 -27 102 -27 97 -23 c 0,20,21
 93 -20 93 -20 91 -15 c 0,22,23
 90 -12 90 -12 90 -10 c 0,24,25
 90 -9 90 -9 90 -8 c 2,26,-1
 90 -7 l 1,27,28
 91 -3 91 -3 98 14 c 0,29,30
 171 191 171 191 217 366 c 0,31,32
 247 482 247 482 254 612 c 1,33,34
 205 588 205 588 190 588 c 0,35,36
 181 588 181 588 176 592 c 0,37,38
 172 595 172 595 170 600 c 0,39,40
 169 602 169 602 169 605 c 0,41,42
 169 624 169 624 191.5 638.5 c 128,-1,43
 214 653 214 653 272 682 c 0,44,45
 327 710 327 710 343 710 c 0,46,47
 350 710 350 710 355 708 c 128,-1,48
 360 706 360 706 362.5 700.5 c 128,-1,49
 365 695 365 695 365 670 c 0,50,51
 365 573 365 573 338 449 c 1,52,53
 364 488 364 488 430 534 c 0,54,55
 538 608 538 608 665 659 c 128,-1,56
 792 710 792 710 854 710 c 0,57,58
 893 710 893 710 915.5 690 c 128,-1,59
 938 670 938 670 938 642 c 0,60,61
 938 611 938 611 914.5 596 c 128,-1,62
 891 581 891 581 873 581 c 0,63,64
 849 581 849 581 849 600 c 0,65,66
 849 601 849 601 849.5 605 c 128,-1,67
 850 609 850 609 850 612 c 0,68,69
 850 625 850 625 838.5 632.5 c 128,-1,70
 827 640 827 640 820.5 641 c 128,-1,71
 814 642 814 642 808 642 c 0,72,73
 771 642 771 642 673.5 602.5 c 128,-1,74
 576 563 576 563 493 510.5 c 128,-1,75
 410 458 410 458 410 432 c 0,76,77
 410 391 410 391 465.5 297.5 c 128,-1,78
 521 204 521 204 600 122.5 c 128,-1,79
 679 41 679 41 733 41 c 0,80,81
 786 41 786 41 826 56 c 0,82,83
 844 62 844 62 854.5 70 c 128,-1,84
 865 78 865 78 868.5 85.5 c 128,-1,85
 872 93 872 93 877 108 c 0,86,87
 882 122 882 122 900 135 c 128,-1,88
 918 148 918 148 948 149 c 1,89,-1
 949 149 l 1,90,-1
 950 149 l 1,91,92
 964 144 964 144 964 129 c 0,0,1
EndSplineSet
Validated: 8391681
EndChar

StartChar: L
Encoding: 76 76 11
Width: 964
VWidth: 1000
Flags: W
HStem: -27 84<527.926 726.758> 24 84<204.514 399.487> 626 84<564.115 703>
VStem: 674 124<543.959 604.507>
LayerCount: 2
Fore
SplineSet
315 108 m 0,0,1
 381 108 381 108 524 80 c 1,2,3
 631 57 631 57 698 57 c 0,4,5
 727 57 727 57 736.5 63.5 c 128,-1,6
 746 70 746 70 754 93 c 128,-1,7
 762 116 762 116 796.5 136.5 c 128,-1,8
 831 157 831 157 855 157 c 0,9,10
 860 157 860 157 863 156 c 0,11,12
 871 153 871 153 873 144 c 0,13,14
 873 143 873 143 873 141 c 0,15,16
 873 96 873 96 794 34.5 c 128,-1,17
 715 -27 715 -27 612 -27 c 0,18,19
 546 -27 546 -27 422 -3 c 1,20,21
 295 24 295 24 229 24 c 0,22,23
 210 24 210 24 198 15 c 0,24,25
 144 -27 144 -27 110 -27 c 0,26,27
 103 -27 103 -27 99 -25 c 0,28,29
 91 -22 91 -22 90 -14 c 0,30,31
 90 -13 90 -13 90 -11 c 0,32,33
 90 -6 90 -6 93 0 c 128,-1,34
 96 6 96 6 100 11 c 128,-1,35
 104 16 104 16 107 18 c 2,36,-1
 114 24 l 1,37,-1
 126 34 l 1,38,-1
 129 37 l 1,39,40
 171 67 171 67 201 119 c 0,41,42
 228 166 228 166 246 238 c 0,43,44
 277 357 277 357 328 459 c 0,45,46
 387 578 387 578 483.5 644 c 128,-1,47
 580 710 580 710 674 710 c 0,48,49
 732 710 732 710 765 678 c 128,-1,50
 798 646 798 646 798 601 c 0,51,52
 798 575 798 575 790 561.5 c 128,-1,53
 782 548 782 548 764 534 c 0,54,55
 724 504 724 504 692 504 c 0,56,57
 687 504 687 504 684 505 c 0,58,59
 676 508 676 508 674 517 c 0,60,61
 674 518 674 518 674 519.5 c 128,-1,62
 674 521 674 521 675.5 529.5 c 128,-1,63
 677 538 677 538 677 547 c 0,64,65
 677 583 677 583 652.5 604.5 c 128,-1,66
 628 626 628 626 588 626 c 0,67,68
 569 626 569 626 555 621.5 c 128,-1,69
 541 617 541 617 516.5 595 c 128,-1,70
 492 573 492 573 467 534 c 0,71,72
 409 444 409 444 362 269 c 0,73,74
 339 183 339 183 287 107 c 1,75,76
 299 108 299 108 315 108 c 0,0,1
EndSplineSet
Validated: 19457
EndChar

StartChar: M
Encoding: 77 77 12
Width: 1567
VWidth: 1000
Flags: W
HStem: -62 118<158.31 259.407> -36 96<1311 1432>
VStem: 1233 111<48.6353 398.586>
LayerCount: 2
Fore
SplineSet
976 214 m 2,0,1
 922 161 922 161 845 96.5 c 128,-1,2
 768 32 768 32 756 29 c 0,3,4
 755 29 755 29 753.5 29 c 128,-1,5
 752 29 752 29 749 30 c 0,6,7
 738 34 738 34 716.5 62 c 128,-1,8
 695 90 695 90 678.5 116 c 128,-1,9
 662 142 662 142 650 164 c 0,10,11
 622 213 622 213 578 324 c 128,-1,12
 534 435 534 435 505 524 c 1,13,14
 459 314 459 314 360 108 c 1,15,16
 281 -62 281 -62 203 -62 c 0,17,18
 165 -62 165 -62 129 -47 c 0,19,20
 85 -28 85 -28 85 -1 c 0,21,22
 85 28 85 28 101 59 c 128,-1,23
 117 90 117 90 134 90 c 0,24,25
 140 90 140 90 149 84 c 0,26,27
 190 56 190 56 237 56 c 0,28,29
 246 56 246 56 252.5 59 c 128,-1,30
 259 62 259 62 273 75.5 c 128,-1,31
 287 89 287 89 306.5 126 c 128,-1,32
 326 163 326 163 351 224 c 0,33,34
 402 348 402 348 427.5 444 c 128,-1,35
 453 540 453 540 466 652 c 0,36,37
 468 673 468 673 496.5 691.5 c 128,-1,38
 525 710 525 710 547 710 c 0,39,40
 554 710 554 710 558 708 c 0,41,42
 562 707 562 707 565 702.5 c 128,-1,43
 568 698 568 698 572 686 c 0,44,45
 684 305 684 305 788 154 c 1,46,47
 902 242 902 242 1044 382 c 2,48,-1
 1364 695 l 2,49,50
 1377 707 1377 707 1384 709 c 0,51,52
 1386 710 1386 710 1388 710 c 0,53,54
 1392 710 1392 710 1395 709 c 0,55,56
 1397 708 1397 708 1398 707 c 0,57,58
 1406 701 1406 701 1406 683 c 0,59,60
 1406 669 1406 669 1398 643 c 0,61,62
 1388 611 1388 611 1366 437 c 128,-1,63
 1344 263 1344 263 1344 172 c 0,64,65
 1344 133 1344 133 1350 89 c 0,66,67
 1353 69 1353 69 1354.5 63 c 128,-1,68
 1356 57 1356 57 1363 50.5 c 128,-1,69
 1370 44 1370 44 1382 43 c 1,70,71
 1413 60 1413 60 1432 60 c 0,72,73
 1441 60 1441 60 1446 56 c 0,74,75
 1450 53 1450 53 1452 48 c 0,76,77
 1453 46 1453 46 1453 43 c 0,78,79
 1453 20 1453 20 1403 -8 c 128,-1,80
 1353 -36 1353 -36 1311 -36 c 0,81,82
 1252 -36 1252 -36 1242 17 c 0,83,84
 1233 64 1233 64 1233 125 c 0,85,86
 1233 259 1233 259 1269 496 c 1,87,-1
 976 214 l 2,0,1
EndSplineSet
Validated: 19457
EndChar

StartChar: N
Encoding: 78 78 13
Width: 1126
VWidth: 1000
Flags: W
HStem: -62 118<89.0522 194.09> 678 118<1076.31 1202.75>
LayerCount: 2
Fore
SplineSet
477 661 m 1,0,1
 542 513 542 513 612 381 c 0,2,3
 672 268 672 268 716 197.5 c 128,-1,4
 760 127 760 127 806 74 c 1,5,-1
 834 187 l 2,6,7
 911 500 911 500 960 635 c 0,8,9
 970 661 970 661 978 678 c 128,-1,10
 986 695 986 695 1005.5 721 c 128,-1,11
 1025 747 1025 747 1048.5 761 c 128,-1,12
 1072 775 1072 775 1113 785.5 c 128,-1,13
 1154 796 1154 796 1207 796 c 0,14,15
 1228 796 1228 796 1232.5 793 c 128,-1,16
 1237 790 1237 790 1238 787 c 0,17,18
 1242 781 1242 781 1242 767 c 0,19,20
 1242 733 1242 733 1221 701 c 0,21,22
 1211 685 1211 685 1203 681.5 c 128,-1,23
 1195 678 1195 678 1176 678 c 0,24,25
 1069 678 1069 678 1020 636 c 1,26,27
 1000 591 1000 591 952.5 422.5 c 128,-1,28
 905 254 905 254 852 17 c 2,29,-1
 852 15 l 1,30,-1
 850 13 l 1,31,-1
 849 13 l 1,32,33
 838 -9 838 -9 814 -23 c 128,-1,34
 790 -37 790 -37 771 -37 c 0,35,36
 758 -37 758 -37 753 -32 c 0,37,38
 714 5 714 5 661 77 c 0,39,40
 619 135 619 135 556.5 249 c 128,-1,41
 494 363 494 363 476 398 c 2,42,-1
 407 540 l 1,43,44
 370 314 370 314 289 111 c 0,45,46
 219 -62 219 -62 136 -62 c 0,47,48
 102 -62 102 -62 64 -47 c 0,49,50
 41 -38 41 -38 30.5 -29 c 128,-1,51
 20 -20 20 -20 18 -14 c 0,52,53
 17 -11 l 0,54,55
 16 -8 16 -8 16 2 c 0,56,57
 16 29 16 29 32 58 c 0,58,59
 39 72 39 72 44.5 78 c 128,-1,60
 50 84 50 84 54 86 c 0,61,62
 55 87 55 87 55.5 87 c 128,-1,63
 56 87 56 87 58 87.5 c 128,-1,64
 60 88 60 88 70 90 c 2,65,-1
 72 90 l 1,66,-1
 74 89 l 2,67,68
 114 56 114 56 171 56 c 0,69,70
 204 56 204 56 226 108 c 1,71,72
 257 171 257 171 302 323.5 c 128,-1,73
 347 476 347 476 358 637 c 0,74,75
 360 670 360 670 383 688 c 1,76,77
 415 710 415 710 439 710 c 0,78,79
 450 710 450 710 458 703 c 2,80,-1
 458 702 l 1,81,-1
 477 661 l 1,0,1
EndSplineSet
Validated: 19457
EndChar

StartChar: O
Encoding: 79 79 14
Width: 1089
VWidth: 1000
Flags: W
HStem: -27 79<391.042 594.859> 631 79<653.077 793.241>
VStem: 117 111<207.642 394.026> 904 111<326.565 513.843>
LayerCount: 2
Fore
SplineSet
961.5 259.5 m 128,-1,1
 908 168 908 168 824 107 c 128,-1,2
 740 46 740 46 639.5 9.5 c 128,-1,3
 539 -27 539 -27 444 -27 c 0,4,5
 299 -27 299 -27 208 56.5 c 128,-1,6
 117 140 117 140 117 269 c 0,7,8
 117 355 117 355 155 431.5 c 128,-1,9
 193 508 193 508 245.5 560.5 c 128,-1,10
 298 613 298 613 360.5 650.5 c 128,-1,11
 423 688 423 688 457 699 c 128,-1,12
 491 710 491 710 502 710 c 0,13,14
 512 710 512 710 518 706 c 0,15,16
 522 703 522 703 523 698 c 0,17,18
 524 696 524 696 524 693 c 0,19,20
 524 660 524 660 445 631 c 0,21,22
 352 598 352 598 290 507.5 c 128,-1,23
 228 417 228 417 228 315 c 0,24,25
 228 201 228 201 308 126.5 c 128,-1,26
 388 52 388 52 517 52 c 0,27,28
 618 52 618 52 706 96 c 128,-1,29
 794 140 794 140 849 222.5 c 128,-1,30
 904 305 904 305 904 405 c 0,31,32
 904 504 904 504 846.5 567.5 c 128,-1,33
 789 631 789 631 696 631 c 0,34,35
 589 631 589 631 506 480 c 0,36,37
 494 458 494 458 466 442 c 128,-1,38
 438 426 438 426 424.5 426 c 128,-1,39
 411 426 411 426 406 429 c 0,40,41
 398 433 398 433 398 442 c 0,42,43
 398 452 398 452 415 481.5 c 128,-1,44
 432 511 432 511 465 550 c 128,-1,45
 498 589 498 589 541 624.5 c 128,-1,46
 584 660 584 660 645 685 c 128,-1,47
 706 710 706 710 769 710 c 0,48,49
 879 710 879 710 947 638 c 128,-1,50
 1015 566 1015 566 1015 452 c 0,51,0
 1015 351 1015 351 961.5 259.5 c 128,-1,1
EndSplineSet
Validated: 19457
EndChar

StartChar: P
Encoding: 80 80 15
Width: 997
VWidth: 1000
Flags: W
HStem: 200 79<476.006 650.5> 609 79<282.807 389 495.153 760.917>
VStem: 389 108<445.238 609> 871 111<433.802 536.166>
LayerCount: 2
Fore
SplineSet
497 609 m 1,0,1
 486 473 486 473 454 347 c 0,2,3
 408 163 408 163 329 -10 c 1,4,5
 319 -27 319 -27 291 -44.5 c 128,-1,6
 263 -62 263 -62 241 -62 c 0,7,8
 235 -62 235 -62 230 -60 c 0,9,10
 224 -57 224 -57 223 -51 c 0,11,12
 222 -48 222 -48 222 -45 c 0,13,14
 222 -44 222 -44 222 -43 c 0,15,16
 223 -39 223 -39 231 -20 c 0,17,18
 375 303 375 303 389 609 c 1,19,20
 339 607 339 607 302 601.5 c 128,-1,21
 265 596 265 596 245.5 590.5 c 128,-1,22
 226 585 226 585 213 573 c 128,-1,23
 200 561 200 561 196 552.5 c 128,-1,24
 192 544 192 544 187 529 c 0,25,26
 179 505 179 505 148.5 487.5 c 128,-1,27
 118 470 118 470 98 470 c 0,28,29
 87 470 87 470 82 475 c 0,30,31
 81 476 81 476 80 478 c 0,32,33
 77 482 77 482 77 488 c 0,34,35
 77 495 77 495 81.5 510.5 c 128,-1,36
 86 526 86 526 113 560.5 c 128,-1,37
 140 595 140 595 185 622 c 0,38,39
 226 647 226 647 266 660.5 c 128,-1,40
 306 674 306 674 359.5 680 c 128,-1,41
 413 686 413 686 450 687 c 128,-1,42
 487 688 487 688 562 688 c 0,43,44
 749 688 749 688 820 672 c 0,45,46
 982 635 982 635 982 525 c 0,47,48
 982 442 982 442 912 367 c 128,-1,49
 842 292 842 292 725 246 c 128,-1,50
 608 200 608 200 477 200 c 0,51,52
 466 200 466 200 460.5 200.5 c 128,-1,53
 455 201 455 201 450 204.5 c 128,-1,54
 445 208 445 208 444 214 c 0,55,56
 444 215 444 215 444 217 c 0,57,58
 444 236 444 236 476 257 c 128,-1,59
 508 278 508 278 531 279 c 0,60,61
 663 282 663 282 745 316 c 0,62,63
 786 333 786 333 814 357.5 c 128,-1,64
 842 382 842 382 853 408 c 128,-1,65
 864 434 864 434 867.5 450 c 128,-1,66
 871 466 871 466 871 478 c 0,67,68
 871 505 871 505 857 526 c 128,-1,69
 843 547 843 547 823 560 c 128,-1,70
 803 573 803 573 772 583.5 c 128,-1,71
 741 594 741 594 715.5 598.5 c 128,-1,72
 690 603 690 603 657 605.5 c 128,-1,73
 624 608 624 608 609.5 608.5 c 128,-1,74
 595 609 595 609 577 609 c 2,75,-1
 497 609 l 1,0,1
EndSplineSet
Validated: 19457
EndChar

StartChar: Q
Encoding: 81 81 16
Width: 1131
VWidth: 1000
Flags: W
HStem: -136 79<701.3 908.484> -39 79<253.939 404.021> 97 79<381.91 563.707> 631 79<544.964 746.921>
VStem: 173 111<264.198 406.074> 892 111<321.518 495.607>
LayerCount: 2
Fore
SplineSet
859 -57 m 0,0,1
 889 -57 889 -57 906 -51 c 128,-1,2
 923 -45 923 -45 927 -39 c 128,-1,3
 931 -33 931 -33 935 -21 c 0,4,5
 946 8 946 8 976.5 24 c 128,-1,6
 1007 40 1007 40 1027 40 c 0,7,8
 1035 40 1035 40 1040 37 c 0,9,10
 1044 34 1044 34 1046 29 c 0,11,12
 1047 26 1047 26 1047 23 c 0,13,14
 1047 -20 1047 -20 971.5 -78 c 128,-1,15
 896 -136 896 -136 787 -136 c 0,16,17
 689 -136 689 -136 517 -89 c 0,18,19
 343 -41 343 -41 243 -39 c 0,20,21
 235 -39 235 -39 230.5 -36 c 128,-1,22
 226 -33 226 -33 224 -28 c 0,23,24
 223 -25 223 -25 223 -22 c 0,25,26
 223 -6 223 -6 253 17 c 128,-1,27
 283 40 283 40 321 40 c 0,28,29
 447 41 447 41 542.5 57.5 c 128,-1,30
 638 74 638 74 719 121 c 0,31,32
 798 167 798 167 845 238.5 c 128,-1,33
 892 310 892 310 892 394 c 0,34,35
 892 496 892 496 818.5 563.5 c 128,-1,36
 745 631 745 631 627 631 c 0,37,38
 480 631 480 631 382 543 c 128,-1,39
 284 455 284 455 284 347 c 0,40,41
 284 273 284 273 340.5 224.5 c 128,-1,42
 397 176 397 176 488 176 c 0,43,44
 554 176 554 176 622 202 c 0,45,46
 644 210 644 210 654 210 c 128,-1,47
 664 210 664 210 670 206 c 0,48,49
 674 203 674 203 675 198 c 0,50,51
 676 196 676 196 676 193 c 0,52,53
 676 158 676 158 589 127.5 c 128,-1,54
 502 97 502 97 415 97 c 0,55,56
 308 97 308 97 240.5 155 c 128,-1,57
 173 213 173 213 173 301 c 0,58,59
 173 401 173 401 250 496.5 c 128,-1,60
 327 592 327 592 449.5 651 c 128,-1,61
 572 710 572 710 699 710 c 0,62,63
 835 710 835 710 919 633.5 c 128,-1,64
 1003 557 1003 557 1003 440 c 0,65,66
 1003 289 1003 289 875.5 170 c 128,-1,67
 748 51 748 51 570 -2 c 1,68,69
 768 -57 768 -57 859 -57 c 0,0,1
EndSplineSet
Validated: 19457
EndChar

StartChar: R
Encoding: 82 82 17
Width: 1196
VWidth: 1000
Flags: W
HStem: -27 79<827.5 961.234> 270 77<518 616> 609 79<324.361 389 495.49 797.531>
VStem: 389 108<438.633 609> 867 111<467.332 561.865>
LayerCount: 2
Fore
SplineSet
497 609 m 1,0,1
 491 510 491 510 468.5 405 c 128,-1,2
 446 300 446 300 416 217.5 c 128,-1,3
 386 135 386 135 368 92 c 128,-1,4
 350 49 350 49 337 24 c 0,5,6
 329 7 329 7 301 -10 c 128,-1,7
 273 -27 273 -27 252 -27 c 0,8,9
 243 -27 243 -27 238 -23 c 0,10,11
 234 -20 234 -20 232 -15 c 0,12,13
 231 -13 231 -13 231 -10 c 0,14,15
 231 -5 231 -5 237 9 c 0,16,17
 371 305 371 305 389 609 c 1,18,19
 339 607 339 607 302 601.5 c 128,-1,20
 265 596 265 596 245.5 590.5 c 128,-1,21
 226 585 226 585 213 573 c 128,-1,22
 200 561 200 561 196 552.5 c 128,-1,23
 192 544 192 544 187 529 c 0,24,25
 179 505 179 505 148.5 487.5 c 128,-1,26
 118 470 118 470 98 470 c 0,27,28
 87 470 87 470 82 475 c 0,29,30
 81 476 81 476 80 478 c 0,31,32
 77 482 77 482 77 488 c 0,33,34
 77 499 77 499 86.5 521.5 c 128,-1,35
 96 544 96 544 134 583 c 128,-1,36
 172 622 172 622 232 647 c 0,37,38
 299 675 299 675 366.5 681.5 c 128,-1,39
 434 688 434 688 573 688 c 0,40,41
 649 688 649 688 686 687.5 c 128,-1,42
 723 687 723 687 780 683.5 c 128,-1,43
 837 680 837 680 864.5 672 c 128,-1,44
 892 664 892 664 923 649.5 c 128,-1,45
 954 635 954 635 966 611 c 128,-1,46
 978 587 978 587 978 555 c 0,47,48
 978 469 978 469 899.5 396.5 c 128,-1,49
 821 324 821 324 703 291 c 1,50,51
 733 257 733 257 777 192 c 0,52,53
 828 116 828 116 859 84 c 128,-1,54
 890 52 890 52 924 52 c 0,55,56
 986 52 986 52 1036 102 c 0,57,58
 1076 142 1076 142 1113 142 c 0,59,60
 1114 142 1114 142 1115 142 c 0,61,62
 1124 142 1124 142 1129 138 c 0,63,64
 1133 135 1133 135 1135 130 c 0,65,66
 1136 128 1136 128 1136 125 c 0,67,68
 1136 109 1136 109 1096.5 74 c 128,-1,69
 1057 39 1057 39 987 6 c 128,-1,70
 917 -27 917 -27 851 -27 c 0,71,72
 804 -27 804 -27 765.5 8.5 c 128,-1,73
 727 44 727 44 672 126 c 0,74,75
 627 193 627 193 599.5 223 c 128,-1,76
 572 253 572 253 559 259 c 128,-1,77
 546 265 546 265 523 269 c 0,78,79
 520 270 520 270 518 270 c 0,80,81
 516 271 516 271 512.5 274.5 c 128,-1,82
 509 278 509 278 509 284 c 0,83,84
 509 305 509 305 541 326 c 128,-1,85
 573 347 573 347 616 347 c 0,86,87
 717 347 717 347 794 386 c 0,88,89
 832 406 832 406 849.5 442 c 128,-1,90
 867 478 867 478 867 509 c 0,91,92
 867 541 867 541 849 560.5 c 128,-1,93
 831 580 831 580 769.5 594.5 c 128,-1,94
 708 609 708 609 599 609 c 2,95,-1
 497 609 l 1,0,1
EndSplineSet
Validated: 3073
EndChar

StartChar: S
Encoding: 83 83 18
Width: 868
VWidth: 1000
Flags: W
HStem: -27 79<299.458 532.877> 631 79<467.915 683.741>
VStem: 80 111<128.082 201.266> 268 111<476.887 563.714> 668 111<149.674 250.156> 723 114<540.891 601.281>
LayerCount: 2
Fore
SplineSet
659.5 51.5 m 128,-1,1
 540 -27 540 -27 353 -27 c 0,2,3
 253 -27 253 -27 178 13 c 0,4,5
 80 64 80 64 80 132 c 0,6,7
 80 190 80 190 133 234.5 c 128,-1,8
 186 279 186 279 233 279 c 0,9,10
 244 279 244 279 250 275 c 0,11,12
 255 272 255 272 256 266 c 0,13,14
 256 264 256 264 256 262 c 0,15,16
 256 250 256 250 242 236.5 c 128,-1,17
 228 223 228 223 207 213 c 0,18,19
 202 210 202 210 199 207.5 c 128,-1,20
 196 205 196 205 193.5 198 c 128,-1,21
 191 191 191 191 191 179 c 0,22,23
 191 130 191 130 263 91 c 128,-1,24
 335 52 335 52 426 52 c 0,25,26
 526 52 526 52 593 79 c 0,27,28
 668 108 668 108 668 187 c 0,29,30
 668 218 668 218 651.5 243 c 128,-1,31
 635 268 635 268 603.5 285 c 128,-1,32
 572 302 572 302 538 313.5 c 128,-1,33
 504 325 504 325 464 333 c 0,34,35
 268 372 268 372 268 485 c 0,36,37
 268 574 268 574 370.5 642 c 128,-1,38
 473 710 473 710 621 710 c 0,39,40
 698 710 698 710 761 689 c 0,41,42
 777 684 777 684 786 679.5 c 128,-1,43
 795 675 795 675 809 665 c 128,-1,44
 823 655 823 655 830 637.5 c 128,-1,45
 837 620 837 620 837 597 c 0,46,47
 837 557 837 557 806 533 c 0,48,49
 772 507 772 507 744 507 c 0,50,51
 735 507 735 507 730 511 c 0,52,53
 726 514 726 514 724 519 c 0,54,55
 723 521 723 521 723 524 c 0,56,-1
 723 525 l 1,57,-1
 725 534 l 2,58,59
 726 543 726 543 726 550 c 0,60,61
 726 567 726 567 721.5 578.5 c 128,-1,62
 717 590 717 590 707 597 c 128,-1,63
 697 604 697 604 690 606.5 c 128,-1,64
 683 609 683 609 666 614 c 0,65,66
 608 631 608 631 548 631 c 0,67,68
 480 631 480 631 431 612 c 0,69,70
 379 592 379 592 379 531 c 0,71,72
 379 507 379 507 392 488 c 128,-1,73
 405 469 405 469 420.5 457 c 128,-1,74
 436 445 436 445 463.5 434.5 c 128,-1,75
 491 424 491 424 498 422 c 2,76,-1
 543 412 l 1,77,78
 779 362 779 362 779 234 c 0,79,0
 779 130 779 130 659.5 51.5 c 128,-1,1
EndSplineSet
Validated: 19457
EndChar

StartChar: T
Encoding: 84 84 19
Width: 822
VWidth: 1000
Flags: W
HStem: 604 84<284.531 548 651 995.769>
LayerCount: 2
Fore
SplineSet
536 575 m 2,0,1
 540 593 540 593 548 604 c 1,2,-1
 319 604 l 2,3,4
 277 604 277 604 252.5 590 c 128,-1,5
 228 576 228 576 215 541 c 0,6,7
 210 527 210 527 207 524 c 0,8,9
 204 518 204 518 194 509 c 0,10,11
 185 501 185 501 170 491 c 0,12,13
 136 470 136 470 111 470 c 0,14,15
 106 470 106 470 103 471 c 0,16,17
 95 474 95 474 93 483 c 0,18,19
 93 484 93 484 93 486 c 0,20,21
 93 492 93 492 98 506 c 128,-1,22
 103 520 103 520 118 542 c 128,-1,23
 133 564 133 564 156 587 c 128,-1,24
 179 610 179 610 220 634 c 0,25,26
 263 659 263 659 311 676 c 0,27,28
 348 688 348 688 450 688 c 2,29,-1
 930 688 l 2,30,31
 989 688 989 688 996 690 c 1,32,33
 1044 722 1044 722 1070 722 c 0,34,35
 1077 722 1077 722 1081 720 c 0,36,37
 1089 717 1089 717 1090 709 c 0,38,39
 1090 708 1090 708 1090 706 c 0,40,41
 1090 690 1090 690 1067 666 c 128,-1,42
 1044 642 1044 642 1001 624 c 1,43,44
 960 604 960 604 871 604 c 2,45,-1
 651 604 l 1,46,-1
 547 185 l 2,47,48
 532 123 532 123 504 58 c 128,-1,49
 476 -7 476 -7 464 -24 c 0,50,51
 452 -40 452 -40 423 -56 c 0,52,53
 394 -73 394 -73 373 -73 c 0,54,55
 366 -73 366 -73 361 -71 c 0,56,57
 352 -67 352 -67 352 -57 c 0,58,59
 352 -56 352 -56 352 -55 c 0,60,-1
 352 -54 l 0,61,62
 353 -49 353 -49 363 -32 c 0,63,64
 409 57 409 57 428 143 c 1,65,-1
 536 575 l 2,0,1
EndSplineSet
Validated: 19457
EndChar

StartChar: U
Encoding: 85 85 20
Width: 873
VWidth: 1000
Flags: W
HStem: -27 79<133 269.225> 609 79<123.986 263.5>
VStem: 33 111<88.9807 253.049> 181 111<548.101 661> 601 111<8.5 173.461>
LayerCount: 2
Fore
SplineSet
395 62 m 0,0,1
 260 -27 260 -27 164 -27 c 0,2,3
 102 -27 102 -27 67 16 c 0,4,5
 33 59 33 59 33 131 c 0,6,7
 33 183 33 183 52 243 c 0,8,9
 69 297 69 297 120 412 c 0,10,11
 181 550 181 550 181 588 c 0,12,13
 181 609 181 609 163 609 c 0,14,15
 128 609 128 609 89 589 c 1,16,17
 67 575 67 575 46 575 c 0,18,19
 37 575 37 575 32 579 c 0,20,21
 28 582 28 582 26 587 c 0,22,23
 25 589 25 589 25 592 c 0,24,25
 25 620 25 620 98 655 c 0,26,27
 169 688 169 688 235 688 c 0,28,29
 292 688 292 688 292 634 c 0,30,31
 292 590 292 590 223 432 c 0,32,33
 182 338 182 338 162 279 c 0,34,35
 144 225 144 225 144 178 c 0,36,37
 144 124 144 124 167 88 c 0,38,39
 189 52 189 52 237 52 c 0,40,41
 299 52 299 52 409 142 c 0,42,43
 520 233 520 233 617 356 c 0,44,45
 716 480 716 480 747 568 c 0,46,47
 772 635 772 635 778 642 c 1,48,49
 789 659 789 659 815 673 c 0,50,51
 841 688 841 688 860 688 c 0,52,53
 870 688 870 688 876 684 c 0,54,55
 880 681 880 681 881 676 c 0,56,57
 882 674 882 674 882 671 c 0,58,59
 882 649 882 649 849 580 c 1,60,61
 825 523 825 523 768 340 c 0,62,63
 712 157 712 157 712 71 c 0,64,65
 712 60 712 60 716.5 53.5 c 128,-1,66
 721 47 721 47 724 46 c 128,-1,67
 727 45 727 45 729 45 c 128,-1,68
 731 45 731 45 738 48 c 0,69,70
 762 60 762 60 777 60 c 0,71,72
 787 60 787 60 793 56 c 0,73,74
 797 53 797 53 798 48 c 0,75,76
 799 46 799 46 799 43 c 0,77,78
 799 20 799 20 749 -8 c 0,79,80
 701 -35 701 -35 662 -35 c 0,81,82
 638 -35 638 -35 620 -22 c 0,83,84
 601 -8 601 -8 601 25 c 0,85,86
 601 87 601 87 623 174 c 0,87,88
 641 244 641 244 657 300 c 1,89,90
 522 146 522 146 395 62 c 0,0,1
EndSplineSet
Validated: 19457
EndChar

StartChar: V
Encoding: 86 86 21
Width: 898
VWidth: 1000
Flags: W
HStem: 570 118<716.082 788.589> 613 75<112.73 181.635>
VStem: 322 102<94 357.047> 821 68<451.546 585.5>
LayerCount: 2
Fore
SplineSet
695 597 m 0,0,1
 695 620 695 620 710 654 c 128,-1,2
 725 688 725 688 753 688 c 0,3,4
 807 688 807 688 848 652 c 128,-1,5
 889 616 889 616 889 555 c 0,6,7
 889 492 889 492 845 401 c 128,-1,8
 801 310 801 310 704 212 c 0,9,10
 634 142 634 142 544.5 74.5 c 128,-1,11
 455 7 455 7 402 -25 c 128,-1,12
 349 -57 349 -57 337 -59 c 0,13,14
 336 -59 336 -59 335 -59 c 0,15,16
 332 -59 332 -59 329 -58 c 128,-1,17
 326 -57 326 -57 324 -55 c 0,18,19
 317 -48 317 -48 317 -31 c 0,20,21
 317 -22 317 -22 319 -1 c 128,-1,22
 321 20 321 20 321 30 c 0,23,24
 321 41 321 41 321.5 62 c 128,-1,25
 322 83 322 83 322 94 c 0,26,27
 322 301 322 301 281 434 c 0,28,29
 263 494 263 494 239 532.5 c 128,-1,30
 215 571 215 571 189 586.5 c 128,-1,31
 163 602 163 602 148 606.5 c 128,-1,32
 133 611 133 611 112 613 c 1,33,34
 89 613 89 613 89 631 c 0,35,36
 89 648 89 648 116 668 c 128,-1,37
 143 688 143 688 177 688 c 0,38,39
 326 688 326 688 388 465 c 0,40,41
 424 334 424 334 424 134 c 0,42,43
 424 110 424 110 423 94 c 1,44,45
 537 165 537 165 632.5 249.5 c 128,-1,46
 728 334 728 334 774.5 398 c 128,-1,47
 821 462 821 462 821 492 c 0,48,49
 821 521 821 521 792.5 545 c 128,-1,50
 764 569 764 569 709 570 c 2,51,-1
 707 570 l 1,52,-1
 706 571 l 2,53,54
 695 581 695 581 695 597 c 0,0,1
EndSplineSet
Validated: 19457
EndChar

StartChar: W
Encoding: 87 87 22
Width: 1367
VWidth: 1000
Flags: W
HStem: 570 118<1216.05 1270.65> 613 75<112.73 177.926>
VStem: 284 102<136.073 435.77> 1291 68<449.48 589>
LayerCount: 2
Fore
SplineSet
1195 596 m 0,0,1
 1195 621 1195 621 1210 654.5 c 128,-1,2
 1225 688 1225 688 1252 688 c 0,3,4
 1296 688 1296 688 1327.5 652.5 c 128,-1,5
 1359 617 1359 617 1359 561 c 0,6,7
 1359 401 1359 401 1143 141 c 0,8,9
 1094 82 1094 82 1028 14.5 c 128,-1,10
 962 -53 962 -53 945 -58 c 0,11,12
 943 -59 943 -59 941 -59 c 0,13,14
 935 -59 935 -59 931 -54 c 0,15,16
 923 -44 923 -44 921 -16 c 0,17,18
 895 291 895 291 773 553 c 1,19,-1
 712 455 l 2,20,21
 650 358 650 358 571.5 254.5 c 128,-1,22
 493 151 493 151 402 53 c 0,23,24
 304 -53 304 -53 289 -59 c 0,25,26
 287 -60 287 -60 286 -59 c 0,27,28
 283 -59 283 -59 282 -58 c 0,29,30
 279 -57 279 -57 276 -55 c 0,31,32
 268 -48 268 -48 268 -30 c 0,33,34
 268 -27 268 -27 270 -13 c 0,35,36
 284 80 284 80 284 210 c 0,37,38
 284 361 284 361 255 463 c 0,39,40
 230 551 230 551 191.5 581.5 c 128,-1,41
 153 612 153 612 103 613 c 2,42,-1
 102 613 l 1,43,-1
 101 613 l 2,44,45
 89 617 89 617 89 631 c 0,46,47
 89 648 89 648 116 668 c 128,-1,48
 143 688 143 688 176 688 c 0,49,50
 297 688 297 688 351 532 c 0,51,52
 386 429 386 429 386 250 c 0,53,54
 386 235 386 235 382 134 c 1,55,56
 469 226 469 226 548.5 330 c 128,-1,57
 628 434 628 434 645 460 c 1,58,-1
 743 616 l 1,59,60
 738 624 738 624 738 630 c 0,61,62
 738 650 738 650 766 669 c 128,-1,63
 794 688 794 688 818 688 c 0,64,65
 834 688 834 688 839 677 c 0,66,67
 972 418 972 418 1015 106 c 1,68,69
 1133 222 1133 222 1212 338 c 128,-1,70
 1291 454 1291 454 1291 497 c 0,71,72
 1291 507 1291 507 1287.5 517.5 c 128,-1,73
 1284 528 1284 528 1277 540.5 c 128,-1,74
 1270 553 1270 553 1252 561 c 128,-1,75
 1234 569 1234 569 1209 570 c 2,76,-1
 1207 570 l 1,77,-1
 1206 571 l 2,78,79
 1195 580 1195 580 1195 596 c 0,0,1
EndSplineSet
Validated: 19457
EndChar

StartChar: X
Encoding: 88 88 23
Width: 996
VWidth: 1000
Flags: W
HStem: -5 79<691.5 829.851> 609 79<377.149 522>
VStem: 110 111<47 118.161> 923 111<563.534 635.5>
LayerCount: 2
Fore
SplineSet
845 104.5 m 128,-1,1
 868 115 868 115 884 115 c 0,2,3
 893 115 893 115 898 112 c 0,4,5
 906 108 906 108 906 99 c 0,6,7
 906 93 906 93 901 82 c 128,-1,8
 896 71 896 71 883 55.5 c 128,-1,9
 870 40 870 40 850.5 26.5 c 128,-1,10
 831 13 831 13 797 4 c 128,-1,11
 763 -5 763 -5 721 -5 c 0,12,13
 703 -5 703 -5 691.5 -3.5 c 128,-1,14
 680 -2 680 -2 660.5 5.5 c 128,-1,15
 641 13 641 13 626 31.5 c 128,-1,16
 611 50 611 50 599 80 c 0,17,18
 592 99 592 99 586.5 124.5 c 128,-1,19
 581 150 581 150 571.5 201 c 128,-1,20
 562 252 562 252 551 301 c 1,21,-1
 426 242 l 1,22,23
 314 187 314 187 277 165 c 0,24,25
 241 143 241 143 231 132 c 128,-1,26
 221 121 221 121 221 110 c 0,27,28
 221 96 221 96 229 87.5 c 128,-1,29
 237 79 237 79 243 77.5 c 128,-1,30
 249 76 249 76 258 74 c 0,31,32
 265 73 265 73 268 71 c 0,33,34
 275 67 275 67 275 58 c 0,35,36
 275 38 275 38 243.5 16.5 c 128,-1,37
 212 -5 212 -5 181 -5 c 0,38,39
 153 -5 153 -5 131.5 13 c 128,-1,40
 110 31 110 31 110 63 c 0,41,42
 110 86 110 86 126.5 110 c 128,-1,43
 143 134 143 134 163 152 c 128,-1,44
 183 170 183 170 216.5 191.5 c 128,-1,45
 250 213 250 213 263 220.5 c 128,-1,46
 276 228 276 228 315 248 c 0,47,48
 374 279 374 279 412 298 c 2,49,-1
 539 358 l 1,50,-1
 510 505 l 1,51,52
 501 543 501 543 490 565.5 c 128,-1,53
 479 588 479 588 462.5 596.5 c 128,-1,54
 446 605 446 605 434.5 607 c 128,-1,55
 423 609 423 609 401 609 c 1,56,57
 385 589 385 589 362 578.5 c 128,-1,58
 339 568 339 568 323 568 c 0,59,60
 314 568 314 568 309 571 c 0,61,62
 301 575 301 575 301 584 c 0,63,64
 301 590 301 590 306 601.5 c 128,-1,65
 311 613 311 613 324 628 c 128,-1,66
 337 643 337 643 356.5 656.5 c 128,-1,67
 376 670 376 670 410 679 c 128,-1,68
 444 688 444 688 486 688 c 0,69,70
 508 688 508 688 522 685.5 c 128,-1,71
 536 683 536 683 558 671.5 c 128,-1,72
 580 660 580 660 596.5 629 c 128,-1,73
 613 598 613 598 622 552 c 2,74,-1
 651 409 l 1,75,76
 811 479 811 479 892 534 c 0,77,78
 913 548 913 548 918 555 c 128,-1,79
 923 562 923 562 923 573 c 0,80,81
 923 604 923 604 889 609 c 0,82,83
 879 610 879 610 875 614 c 0,84,85
 869 618 869 618 869 626 c 0,86,87
 869 645 869 645 900.5 666.5 c 128,-1,88
 932 688 932 688 962 688 c 128,-1,89
 992 688 992 688 1013 669.5 c 128,-1,90
 1034 651 1034 651 1034 620 c 0,91,92
 1034 585 1034 585 998 547.5 c 128,-1,93
 962 510 962 510 879 462 c 1,94,-1
 833 437 l 1,95,-1
 728 384 l 2,96,97
 669 355 669 355 662 352 c 1,98,-1
 670 310 l 1,99,-1
 690 213 l 2,100,101
 701 157 701 157 707 143 c 0,102,103
 719 110 719 110 735 94.5 c 128,-1,104
 751 79 751 79 764.5 76.5 c 128,-1,105
 778 74 778 74 806 74 c 1,106,0
 822 94 822 94 845 104.5 c 128,-1,1
EndSplineSet
Validated: 19457
EndChar

StartChar: Y
Encoding: 89 89 24
Width: 929
VWidth: 1000
Flags: W
HStem: -148 102<202.77 337.086> 579 109<750.552 830.665> 613 75<167.856 272.05>
VStem: 858 64<450.066 556.376>
LayerCount: 2
Fore
SplineSet
736 616 m 0,0,1
 736 636 736 636 748 661 c 0,2,3
 761 688 761 688 787 688 c 0,4,5
 839 688 839 688 880 653 c 0,6,7
 922 618 922 618 922 552 c 128,-1,8
 922 486 922 486 865 370.5 c 128,-1,9
 808 255 808 255 702 146 c 0,10,11
 579 20 579 20 448 -64 c 128,-1,12
 317 -148 317 -148 258 -148 c 0,13,14
 181 -148 181 -148 135.5 -102 c 128,-1,15
 90 -56 90 -56 90 -21 c 0,16,17
 90 0 90 0 104 25 c 0,18,19
 119 51 119 51 135 51 c 0,20,21
 139 51 139 51 142 48 c 0,22,23
 149 43 149 43 153 34 c 0,24,25
 166 5 166 5 187 -12 c 0,26,27
 208 -30 208 -30 230 -36 c 0,28,29
 253 -43 253 -43 264 -44.5 c 128,-1,30
 275 -46 275 -46 285 -46 c 0,31,32
 329 -46 329 -46 452 32 c 1,33,34
 444 246 444 246 394 404 c 0,35,36
 383 439 383 439 368.5 469.5 c 128,-1,37
 354 500 354 500 329 536 c 0,38,39
 305 572 305 572 270 592 c 0,40,41
 235 613 235 613 194 613 c 0,42,43
 186 613 186 613 178 606 c 0,44,45
 149 579 149 579 119 579 c 0,46,47
 118 579 118 579 117 579 c 0,48,49
 107 579 107 579 101 583 c 0,50,51
 97 586 97 586 96 591 c 0,52,53
 95 593 95 593 95 596 c 0,54,55
 95 620 95 620 148 654 c 0,56,57
 200 688 200 688 258 688 c 0,58,59
 308 688 308 688 351 663 c 0,60,61
 392 638 392 638 422 599 c 0,62,63
 451 561 451 561 474 506 c 0,64,65
 497 452 497 452 510.5 401.5 c 128,-1,66
 524 351 524 351 533.5 293.5 c 128,-1,67
 543 236 543 236 546 197 c 0,68,69
 550 154 550 154 552 123 c 0,70,-1
 553 105 l 1,71,72
 560 110 560 110 572 120 c 0,73,74
 596 139 596 139 637 177 c 0,75,76
 675 212 675 212 712 254 c 0,77,78
 771 321 771 321 807 383 c 0,79,80
 843 446 843 446 850.5 472.5 c 128,-1,81
 858 499 858 499 858 509 c 0,82,83
 858 536 858 536 831.5 560.5 c 128,-1,84
 805 585 805 585 750 586 c 2,85,-1
 748 586 l 1,86,-1
 747 587 l 2,87,88
 736 594 736 594 736 616 c 0,0,1
EndSplineSet
Validated: 3073
EndChar

StartChar: Z
Encoding: 90 90 25
Width: 991
VWidth: 1000
Flags: W
HStem: -5 84<433.668 756.479> 17 84<202.429 532.212> 338 68<406.139 520 587.984 606> 582 84<617.837 806> 604 84<439.118 780.336>
LayerCount: 2
Fore
SplineSet
606 406 m 1,0,-1
 718 502 l 1,1,2
 791 567 791 567 806 582 c 1,3,4
 798 582 798 582 786 582 c 0,5,6
 732 582 732 582 647 592 c 0,7,8
 546 604 546 604 501 604 c 0,9,10
 452 604 452 604 411 592 c 0,11,12
 395 587 395 587 390 582 c 0,13,14
 382 574 382 574 376 555 c 0,15,16
 366 526 366 526 331 507 c 0,17,18
 296 487 296 487 275 487 c 0,19,20
 269 487 269 487 265 488 c 0,21,22
 255 491 255 491 255 502 c 0,23,24
 255 518 255 518 268 541 c 128,-1,25
 281 564 281 564 308.5 589.5 c 128,-1,26
 336 615 336 615 373 637 c 128,-1,27
 410 659 410 659 466.5 673.5 c 128,-1,28
 523 688 523 688 587 688 c 0,29,30
 640 688 640 688 731 678 c 1,31,32
 823 666 823 666 872 666 c 0,33,34
 898 666 898 666 919 676 c 0,35,36
 942 688 942 688 958 688 c 0,37,38
 965 688 965 688 969 686 c 0,39,40
 977 683 977 683 978 675 c 0,41,42
 978 674 978 674 978 672 c 0,43,44
 978 660 978 660 963 644 c 0,45,46
 855 537 855 537 711 417 c 1,47,-1
 698 405 l 1,48,49
 699 405 699 405 701 405 c 0,50,51
 787 405 787 405 787 366 c 0,52,53
 787 351 787 351 767 334 c 128,-1,54
 747 317 747 317 715 316 c 2,55,-1
 713 316 l 1,56,-1
 711 317 l 1,57,-1
 711 318 l 2,58,-1
 710 318 l 0,59,60
 707 319 707 319 706 320 c 2,61,-1
 706 321 l 1,62,-1
 706 322 l 2,63,64
 704 325 704 325 703 326 c 0,65,-1
 702 326 l 0,66,67
 702 327 702 327 701 327 c 128,-1,68
 700 327 700 327 699 330 c 0,69,70
 698 331 698 331 697 331 c 0,71,72
 683 336 683 336 613 338 c 1,73,74
 504 248 504 248 297 100 c 1,75,76
 309 101 309 101 324 101 c 0,77,78
 399 101 399 101 546 89 c 0,79,80
 669 79 669 79 730 79 c 0,81,82
 751 79 751 79 760 81 c 128,-1,83
 769 83 769 83 778 93 c 0,84,85
 800 116 800 116 812 153 c 0,86,87
 821 181 821 181 854 203 c 1,88,89
 891 225 891 225 913 225 c 0,90,91
 920 225 920 225 924 223 c 0,92,93
 934 220 934 220 934 210 c 0,94,95
 934 190 934 190 914 155 c 0,96,97
 894 122 894 122 860 86 c 0,98,99
 825 49 825 49 767 22 c 128,-1,100
 709 -5 709 -5 644 -5 c 0,101,102
 562 -5 562 -5 399 9 c 0,103,104
 306 17 306 17 238 17 c 0,105,106
 187 17 187 17 150 3 c 0,107,108
 127 -5 127 -5 116 -5 c 0,109,110
 110 -5 110 -5 106 -4 c 0,111,112
 96 -1 96 -1 96 10 c 0,113,114
 96 31 96 31 153 69 c 1,115,-1
 362 218 l 1,116,117
 467 295 467 295 520 338 c 1,118,-1
 407 338 l 1,119,120
 393 342 393 342 393 357 c 0,121,122
 393 364 393 364 398 374 c 128,-1,123
 403 384 403 384 422.5 395 c 128,-1,124
 442 406 442 406 470 406 c 2,125,-1
 606 406 l 1,0,-1
EndSplineSet
Validated: 19457
EndChar
